<svg xmlns="http://www.w3.org/2000/svg" viewBox="0 0 189.75 123.33"><defs><style>.cls-1{fill:#282973;}.cls-2{fill:none;stroke:#fff;stroke-miterlimit:10;stroke-width:2px;}</style></defs><title>Logo 2_1</title><g id="Layer_2" data-name="Layer 2"><g id="Layer_1-2" data-name="Layer 1"><path class="cls-1" d="M0,123.33V0H37.27L59.65,84.13,81.77,0h37.35V123.33H96V26.25L71.51,123.33h-24L23.13,26.25v97.08Z"/><polygon class="cls-1" points="159.92 15.76 130.1 0.18 130.1 4.83 130.1 56.33 189.75 56.33 189.75 0.18 159.92 15.76"/><line class="cls-2" x1="159.75" y1="20.33" x2="129.75" y2="4.33"/><line class="cls-2" x1="159.75" y1="25.53" x2="129.75" y2="9.53"/><line class="cls-2" x1="159.75" y1="30.73" x2="129.75" y2="14.73"/><line class="cls-2" x1="159.75" y1="35.93" x2="129.75" y2="19.93"/><line class="cls-2" x1="159.75" y1="41.13" x2="129.75" y2="25.13"/><line class="cls-2" x1="159.75" y1="46.33" x2="129.75" y2="30.33"/><polygon class="cls-1" points="159.92 82.76 130.1 67.18 130.1 71.83 130.1 123.33 189.75 123.33 189.75 67.18 159.92 82.76"/><line class="cls-2" x1="159.75" y1="87.33" x2="129.75" y2="71.33"/><line class="cls-2" x1="159.75" y1="92.53" x2="129.75" y2="76.53"/><line class="cls-2" x1="159.75" y1="97.73" x2="129.75" y2="81.73"/><line class="cls-2" x1="159.75" y1="102.93" x2="129.75" y2="86.93"/><line class="cls-2" x1="159.75" y1="108.13" x2="129.75" y2="92.13"/><line class="cls-2" x1="159.75" y1="113.33" x2="129.75" y2="97.33"/></g></g></svg>