<svg xmlns="http://www.w3.org/2000/svg" viewBox="0 0 229.5 170"><defs><style>.cls-1,.cls-3{fill:none;stroke-miterlimit:10;}.cls-1{stroke:#282973;stroke-linecap:round;stroke-width:4px;}.cls-2{fill:#282973;}.cls-3{stroke:#fff;stroke-width:2px;}</style></defs><title>Logo 3</title><g id="Layer_2" data-name="Layer 2"><g id="Layer_1-2" data-name="Layer 1"><rect class="cls-1" x="2" y="2" width="225.5" height="166" rx="18.14" ry="18.14"/><path class="cls-2" d="M19.88,147V23.67H57.14L79.52,107.8l22.13-84.13H139V147H115.86V49.92L91.38,147h-24L43,49.92V147Z"/><polygon class="cls-2" points="179.8 39.43 149.98 23.85 149.98 28.5 149.98 80 209.62 80 209.62 23.85 179.8 39.43"/><line class="cls-3" x1="179.62" y1="44" x2="149.62" y2="28"/><line class="cls-3" x1="179.62" y1="49.2" x2="149.62" y2="33.2"/><line class="cls-3" x1="179.62" y1="54.4" x2="149.62" y2="38.4"/><line class="cls-3" x1="179.62" y1="59.6" x2="149.62" y2="43.6"/><line class="cls-3" x1="179.62" y1="64.8" x2="149.62" y2="48.8"/><line class="cls-3" x1="179.62" y1="70" x2="149.62" y2="54"/><polygon class="cls-2" points="179.8 106.43 149.98 90.85 149.98 95.5 149.98 147 209.62 147 209.62 90.85 179.8 106.43"/><line class="cls-3" x1="179.62" y1="111" x2="149.62" y2="95"/><line class="cls-3" x1="179.62" y1="116.2" x2="149.62" y2="100.2"/><line class="cls-3" x1="179.62" y1="121.4" x2="149.62" y2="105.4"/><line class="cls-3" x1="179.62" y1="126.6" x2="149.62" y2="110.6"/><line class="cls-3" x1="179.62" y1="131.8" x2="149.62" y2="115.8"/><line class="cls-3" x1="179.62" y1="137" x2="149.62" y2="121"/></g></g></svg>